<?xml version="1.0" encoding="utf-8"?>
<!-- Generator: Adobe Illustrator 22.1.0, SVG Export Plug-In . SVG Version: 6.00 Build 0)  -->
<svg version="1.1" id="Layer_1" xmlns="http://www.w3.org/2000/svg" xmlns:xlink="http://www.w3.org/1999/xlink" x="0px" y="0px"
	 viewBox="0 0 432 432" style="enable-background:new 0 0 432 432;" xml:space="preserve">
<style type="text/css">
	.st0{clip-path:url(#SVGID_2_);}
	.st1{fill:#FFFFFF;}
	.st2{fill:none;stroke:#00539A;stroke-width:18.78;stroke-miterlimit:10;}
	.st3{fill:#89C1D8;}
	.st4{fill:#1C73BA;}
</style>
<title>continuum-icons-no-text</title>
<g>
	<defs>
		<rect id="SVGID_1_" x="9" y="11.1" width="415" height="409.9"/>
	</defs>
	<clipPath id="SVGID_2_">
		<use xlink:href="#SVGID_1_"  style="overflow:visible;"/>
	</clipPath>
	<g class="st0">
		<path class="st1" d="M414.6,216.1c0-108-88.7-195.6-198.1-195.6S18.4,108.1,18.4,216.1s88.7,195.6,198.1,195.6
			S414.6,324.1,414.6,216.1"/>
		<path class="st2" d="M414.6,216.1c0-108-88.7-195.6-198.1-195.6S18.4,108.1,18.4,216.1s88.7,195.6,198.1,195.6
			S414.6,324.1,414.6,216.1z"/>
	</g>
</g>
<rect x="175.1" y="142.1" class="st3" width="29.7" height="29.7"/>
<rect x="218.4" y="142.1" class="st3" width="29.7" height="29.7"/>
<rect x="175.1" y="181.7" class="st3" width="29.7" height="29.7"/>
<rect x="218.4" y="181.7" class="st3" width="29.7" height="29.7"/>
<polygon class="st3" points="210.3,52.7 63.3,186.6 97.7,186.3 210.3,83.9 322.9,186.3 357.3,186.6 330.4,162.1 330.4,95.7 
	300.3,95.7 300.3,134.7 "/>
<path class="st4" d="M221.2,257c6.6,2.8,13.6,4.8,20.7,6.1h2c6.4,0.1,12.7-0.6,18.9-2.2c-7.9-0.9-15.6-3.2-22.8-6.7
	c-24.6-12.3-51.9-43.4-79.8-32.9c13.4,6.4,26.6,14.9,38.4,22.4C207.8,249.5,215.8,254.6,221.2,257"/>
<path class="st4" d="M148.8,239.3c24.4,11.1,47.2,17.9,69.1,20.8c-23.6-11.1-80.7-55.5-109.5-41.2c11.3,3.9,23.1,10.7,31.9,15.8
	C143.9,236.7,147,238.5,148.8,239.3"/>
<path class="st4" d="M117.2,259.9c-8.2-4.5-41.6-26.5-35.1-34.5c11.6-14.5,52.8,14.2,63.2,18.9c30,13.6,62.5,23.4,97.2,23
	c19.5,0.2,36.3-3.2,45.1-18.4c13-22.7-36-30.8-32.7-53.1c2.2-15,12.1-10.9,21.3-3.5c30.8,24.9,75.9,30.8,72.1,71.9
	c-1.4,15.3-9.6,30.6-26.1,38.6C263,331.3,165.6,286.8,117.2,259.9"/>
</svg>
