<svg id="Layer_1" data-name="Layer 1" xmlns="http://www.w3.org/2000/svg" xmlns:xlink="http://www.w3.org/1999/xlink" viewBox="0 0 432 432"><defs><style>.cls-1,.cls-4{fill:none;}.cls-2{clip-path:url(#clip-path);}.cls-3{fill:#fff;}.cls-4{stroke:#00539a;stroke-miterlimit:10;stroke-width:18.82px;}.cls-5{fill:#2bbecb;}.cls-6{clip-path:url(#clip-path-2);}.cls-7{fill:#1c73ba;}.cls-8{font-size:38.91px;fill:#00539a;font-family:Gotham-Book, Gotham;}</style><clipPath id="clip-path"><rect class="cls-1" x="8" y="13.71" width="416" height="437.29"/></clipPath><clipPath id="clip-path-2"><rect class="cls-1" x="-64.3" y="16.71" width="568.87" height="597.98"/></clipPath></defs><title>continuum-icons-no-text</title><g class="cls-2"><path class="cls-3" d="M414.59,219.17c0-108.28-88.91-196-198.59-196s-198.59,87.77-198.59,196,88.91,196,198.59,196,198.59-87.77,198.59-196"/><ellipse class="cls-4" cx="216" cy="219.17" rx="198.59" ry="196.04"/></g><polygon class="cls-5" points="212.88 71.51 55.19 215.16 92.06 214.76 212.88 104.92 333.7 214.76 370.57 215.16 341.67 188.83 341.67 117.61 309.42 117.61 309.42 159.44 212.88 71.51"/><g class="cls-6"><path class="cls-5" d="M244.86,292.46a29.35,29.35,0,1,1-29.35-29.35,29.34,29.34,0,0,1,29.35,29.35"/><path class="cls-7" d="M236.71,294.15a30.68,30.68,0,0,1-5.63,6c-4.76,4-10.6,7.44-13.69,12.56a2.14,2.14,0,0,1-3.53,0c-3.09-5.12-8.93-8.57-13.69-12.56a34.84,34.84,0,0,1-4.33-4.25c-.46-.55-.9-1.12-1.3-1.7-3.07-4.43-4.65-10.76-2.19-15.65a11.48,11.48,0,0,1,10.07-6.39,10.25,10.25,0,0,1,2.3.25,14.16,14.16,0,0,1,4.16,1.55,21.15,21.15,0,0,1,3.86,3,28.7,28.7,0,0,1,2.61,2.68l.28.13.26-.13a31.58,31.58,0,0,1,2.62-2.68,21.15,21.15,0,0,1,3.86-3,14.16,14.16,0,0,1,4.16-1.55,10.31,10.31,0,0,1,2.3-.25,11.52,11.52,0,0,1,10.08,6.39c1.72,3.43,1.45,7.57.08,11.26a19.64,19.64,0,0,1-2.28,4.39m49.67-80.89a5.12,5.12,0,0,0-6.69-.67l-41.07,29.22a43,43,0,0,1-49.8,0l-41.07-29.22a5.13,5.13,0,0,0-6.7.67L125,230.45a5.09,5.09,0,0,0,.48,7.44L170.54,275v78.12H256.9V275L302,237.89a5.11,5.11,0,0,0,.48-7.44Z"/><path class="cls-5" d="M249.44,197.9a35.72,35.72,0,1,0-35.72,35.72,35.72,35.72,0,0,0,35.72-35.72"/></g><text class="cls-8" transform="translate(365.4 312.75)"> </text></svg>