<?xml version="1.0" encoding="utf-8"?>
<!-- Generator: Adobe Illustrator 22.1.0, SVG Export Plug-In . SVG Version: 6.00 Build 0)  -->
<svg version="1.1" id="Layer_1" xmlns="http://www.w3.org/2000/svg" xmlns:xlink="http://www.w3.org/1999/xlink" x="0px" y="0px"
	 viewBox="0 0 432 432" style="enable-background:new 0 0 432 432;" xml:space="preserve">
<style type="text/css">
	.st0{clip-path:url(#SVGID_2_);}
	.st1{fill:none;stroke:#00539A;stroke-width:18.29;stroke-miterlimit:10;}
	.st2{fill:#1C73BA;}
	.st3{fill:#FFFFFF;}
	.st4{fill:#9ED5BC;}
</style>
<title>continuum-icons-no-text</title>
<g>
	<defs>
		<rect id="SVGID_1_" x="5" y="8.6" width="420" height="417.9"/>
	</defs>
	<clipPath id="SVGID_2_">
		<use xlink:href="#SVGID_1_"  style="overflow:visible;"/>
	</clipPath>
	<g class="st0">
		<path class="st1" d="M415.9,216c0-109.5-89.9-198.3-200.9-198.3S14.1,106.5,14.1,216S104.1,414.3,215,414.3S415.9,325.5,415.9,216
			z"/>
		<path class="st2" d="M199.9,174.5c1.5-1.9,4.2-2.3,6.2-0.9l29,22l12.5-16.6c0.7-0.9,1.7-1.6,2.9-1.7c1.2-0.2,2.3,0.1,3.3,0.9
			l19.5,14.8l-7.2-52.4c-0.1-1-1-1.8-2-1.8h-0.4l-92,12.9c-1.2,0.2-2,1.2-1.8,2.4l7.1,50.9L199.9,174.5z"/>
		<path class="st3" d="M231.4,150.8c0-6.8-5.5-12.2-12.3-12.2c-6.8,0-12.2,5.5-12.2,12.3s5.5,12.2,12.3,12.2
			C225.9,163.1,231.3,157.6,231.4,150.8L231.4,150.8z"/>
		<path class="st4" d="M290,161.5l-6,17.3l3.6,26.1c1.2,8.7-4.9,16.7-13.6,17.9l-5.7,0.8l-3.8,10.9l0,0c-1.5,4.7-6.5,7.2-11.2,5.7
			c-0.1,0-0.2-0.1-0.3-0.1l-29.6-10.3l-41.5,5.9l0,0c-0.9,0.1-1.8,0.1-2.7,0c-7.8-0.2-14.3-6-15.3-13.7l-1.9-13.6l-4.7-1.6l0,0
			c-4.6-1.6-7.1-6.6-5.6-11.2c0-0.1,0.1-0.2,0.1-0.3l5.9-17.3l-3.6-26.1c-1.2-8.7,4.8-16.7,13.5-17.9l5.8-0.8l3.8-10.9
			c1.5-4.7,6.6-7.2,11.2-5.6c0.1,0,0.2,0.1,0.3,0.1l29.6,10.3l41.5-5.9l0,0c8.7-1.2,16.7,4.9,17.9,13.6l1.8,13.8l4.7,1.6
			c4.6,1.5,7.2,6.5,5.7,11.1C290.1,161.3,290,161.4,290,161.5 M331.3,175.4c-1.4-55.3-48.6-104-103.8-107.1
			C167,64.8,115.1,110.6,111,171l-0.3,3c-0.4,11.9-3.3,23.7-8.4,34.5c-4.9,9.3-9.9,18.4-14.1,24.9l0,0c-2.9,4.4-1.6,10.3,2.9,13.2
			c1.5,1,3.3,1.5,5.1,1.5h14.4V301c0,10.7,8.7,19.4,19.4,19.4l0,0h30.2V340c0,3.9,3.1,7,7,7h130c3.9,0,7-3.1,7-7v-89.4
			c18.1-20.8,27.7-47.7,26.9-75.2"/>
	</g>
</g>
</svg>
